<mxfile host="Electron" modified="2023-12-20T12:55:15.336Z" agent="Mozilla/5.0 (Windows NT 10.0; Win64; x64) AppleWebKit/537.36 (KHTML, like Gecko) draw.io/22.0.3 Chrome/114.0.5735.289 Electron/25.8.4 Safari/537.36" etag="u0Bl3CF6wxeM2KHv6Hek" version="22.0.3" type="device">
  <diagram id="C5RBs43oDa-KdzZeNtuy" name="Page-1">
    <mxGraphModel dx="1674" dy="844" grid="1" gridSize="10" guides="1" tooltips="1" connect="1" arrows="1" fold="1" page="1" pageScale="1" pageWidth="827" pageHeight="1169" math="0" shadow="0">
      <root>
        <mxCell id="WIyWlLk6GJQsqaUBKTNV-0" />
        <mxCell id="WIyWlLk6GJQsqaUBKTNV-1" parent="WIyWlLk6GJQsqaUBKTNV-0" />
        <mxCell id="zkfFHV4jXpPFQw0GAbJ--0" value="Linha" style="swimlane;fontStyle=2;align=center;verticalAlign=top;childLayout=stackLayout;horizontal=1;startSize=26;horizontalStack=0;resizeParent=1;resizeLast=0;collapsible=1;marginBottom=0;rounded=0;shadow=0;strokeWidth=1;" parent="WIyWlLk6GJQsqaUBKTNV-1" vertex="1">
          <mxGeometry x="80" y="120" width="160" height="80" as="geometry">
            <mxRectangle x="230" y="140" width="160" height="26" as="alternateBounds" />
          </mxGeometry>
        </mxCell>
        <mxCell id="zkfFHV4jXpPFQw0GAbJ--1" value="nome" style="text;align=left;verticalAlign=top;spacingLeft=4;spacingRight=4;overflow=hidden;rotatable=0;points=[[0,0.5],[1,0.5]];portConstraint=eastwest;" parent="zkfFHV4jXpPFQw0GAbJ--0" vertex="1">
          <mxGeometry y="26" width="160" height="26" as="geometry" />
        </mxCell>
        <mxCell id="zkfFHV4jXpPFQw0GAbJ--2" value="cor" style="text;align=left;verticalAlign=top;spacingLeft=4;spacingRight=4;overflow=hidden;rotatable=0;points=[[0,0.5],[1,0.5]];portConstraint=eastwest;rounded=0;shadow=0;html=0;" parent="zkfFHV4jXpPFQw0GAbJ--0" vertex="1">
          <mxGeometry y="52" width="160" height="26" as="geometry" />
        </mxCell>
        <mxCell id="apiDf4bLDLwHWCde7VjK-0" value="Paragem" style="swimlane;fontStyle=2;align=center;verticalAlign=top;childLayout=stackLayout;horizontal=1;startSize=26;horizontalStack=0;resizeParent=1;resizeLast=0;collapsible=1;marginBottom=0;rounded=0;shadow=0;strokeWidth=1;" parent="WIyWlLk6GJQsqaUBKTNV-1" vertex="1">
          <mxGeometry x="580" y="134" width="160" height="52" as="geometry">
            <mxRectangle x="230" y="140" width="160" height="26" as="alternateBounds" />
          </mxGeometry>
        </mxCell>
        <mxCell id="apiDf4bLDLwHWCde7VjK-1" value="nome" style="text;align=left;verticalAlign=top;spacingLeft=4;spacingRight=4;overflow=hidden;rotatable=0;points=[[0,0.5],[1,0.5]];portConstraint=eastwest;" parent="apiDf4bLDLwHWCde7VjK-0" vertex="1">
          <mxGeometry y="26" width="160" height="26" as="geometry" />
        </mxCell>
        <mxCell id="apiDf4bLDLwHWCde7VjK-3" value="Horário" style="swimlane;fontStyle=2;align=center;verticalAlign=top;childLayout=stackLayout;horizontal=1;startSize=26;horizontalStack=0;resizeParent=1;resizeLast=0;collapsible=1;marginBottom=0;rounded=0;shadow=0;strokeWidth=1;" parent="WIyWlLk6GJQsqaUBKTNV-1" vertex="1">
          <mxGeometry x="338" y="270" width="162" height="80" as="geometry">
            <mxRectangle x="230" y="140" width="160" height="26" as="alternateBounds" />
          </mxGeometry>
        </mxCell>
        <mxCell id="apiDf4bLDLwHWCde7VjK-49" value="tempo de passagem" style="text;align=left;verticalAlign=top;spacingLeft=4;spacingRight=4;overflow=hidden;rotatable=0;points=[[0,0.5],[1,0.5]];portConstraint=eastwest;" parent="apiDf4bLDLwHWCde7VjK-3" vertex="1">
          <mxGeometry y="26" width="162" height="28" as="geometry" />
        </mxCell>
        <mxCell id="apiDf4bLDLwHWCde7VjK-4" value="número da paragem" style="text;align=left;verticalAlign=top;spacingLeft=4;spacingRight=4;overflow=hidden;rotatable=0;points=[[0,0.5],[1,0.5]];portConstraint=eastwest;" parent="apiDf4bLDLwHWCde7VjK-3" vertex="1">
          <mxGeometry y="54" width="162" height="26" as="geometry" />
        </mxCell>
        <mxCell id="apiDf4bLDLwHWCde7VjK-6" value="Viagem" style="swimlane;fontStyle=2;align=center;verticalAlign=top;childLayout=stackLayout;horizontal=1;startSize=26;horizontalStack=0;resizeParent=1;resizeLast=0;collapsible=1;marginBottom=0;rounded=0;shadow=0;strokeWidth=1;" parent="WIyWlLk6GJQsqaUBKTNV-1" vertex="1">
          <mxGeometry x="82" y="332" width="158" height="52" as="geometry">
            <mxRectangle x="230" y="140" width="160" height="26" as="alternateBounds" />
          </mxGeometry>
        </mxCell>
        <mxCell id="apiDf4bLDLwHWCde7VjK-7" value="hora de partida" style="text;align=left;verticalAlign=top;spacingLeft=4;spacingRight=4;overflow=hidden;rotatable=0;points=[[0,0.5],[1,0.5]];portConstraint=eastwest;" parent="apiDf4bLDLwHWCde7VjK-6" vertex="1">
          <mxGeometry y="26" width="158" height="26" as="geometry" />
        </mxCell>
        <mxCell id="apiDf4bLDLwHWCde7VjK-9" value="Título" style="swimlane;fontStyle=2;align=center;verticalAlign=top;childLayout=stackLayout;horizontal=1;startSize=26;horizontalStack=0;resizeParent=1;resizeLast=0;collapsible=1;marginBottom=0;rounded=0;shadow=0;strokeWidth=1;" parent="WIyWlLk6GJQsqaUBKTNV-1" vertex="1">
          <mxGeometry x="340" y="430" width="160" height="60" as="geometry">
            <mxRectangle x="230" y="140" width="160" height="26" as="alternateBounds" />
          </mxGeometry>
        </mxCell>
        <mxCell id="apiDf4bLDLwHWCde7VjK-12" value="preço" style="text;align=left;verticalAlign=top;spacingLeft=4;spacingRight=4;overflow=hidden;rotatable=0;points=[[0,0.5],[1,0.5]];portConstraint=eastwest;" parent="apiDf4bLDLwHWCde7VjK-9" vertex="1">
          <mxGeometry y="26" width="160" height="26" as="geometry" />
        </mxCell>
        <mxCell id="apiDf4bLDLwHWCde7VjK-17" value="Zona" style="swimlane;fontStyle=2;align=center;verticalAlign=top;childLayout=stackLayout;horizontal=1;startSize=26;horizontalStack=0;resizeParent=1;resizeLast=0;collapsible=1;marginBottom=0;rounded=0;shadow=0;strokeWidth=1;" parent="WIyWlLk6GJQsqaUBKTNV-1" vertex="1">
          <mxGeometry x="580" y="280" width="160" height="52" as="geometry">
            <mxRectangle x="230" y="140" width="160" height="26" as="alternateBounds" />
          </mxGeometry>
        </mxCell>
        <mxCell id="apiDf4bLDLwHWCde7VjK-18" value="nome" style="text;align=left;verticalAlign=top;spacingLeft=4;spacingRight=4;overflow=hidden;rotatable=0;points=[[0,0.5],[1,0.5]];portConstraint=eastwest;" parent="apiDf4bLDLwHWCde7VjK-17" vertex="1">
          <mxGeometry y="26" width="160" height="26" as="geometry" />
        </mxCell>
        <mxCell id="apiDf4bLDLwHWCde7VjK-22" value="" style="endArrow=none;html=1;rounded=0;entryX=1;entryY=0.66;entryDx=0;entryDy=0;entryPerimeter=0;" parent="WIyWlLk6GJQsqaUBKTNV-1" target="apiDf4bLDLwHWCde7VjK-39" edge="1">
          <mxGeometry width="50" height="50" relative="1" as="geometry">
            <mxPoint x="240" y="160" as="sourcePoint" />
            <mxPoint x="530" y="160" as="targetPoint" />
          </mxGeometry>
        </mxCell>
        <mxCell id="apiDf4bLDLwHWCde7VjK-24" value="" style="endArrow=none;dashed=1;html=1;dashPattern=1 3;strokeWidth=2;rounded=0;exitX=0.5;exitY=0;exitDx=0;exitDy=0;entryX=0.5;entryY=1;entryDx=0;entryDy=0;" parent="WIyWlLk6GJQsqaUBKTNV-1" source="apiDf4bLDLwHWCde7VjK-3" target="apiDf4bLDLwHWCde7VjK-28" edge="1">
          <mxGeometry width="50" height="50" relative="1" as="geometry">
            <mxPoint x="370" y="210" as="sourcePoint" />
            <mxPoint x="420" y="160" as="targetPoint" />
          </mxGeometry>
        </mxCell>
        <mxCell id="apiDf4bLDLwHWCde7VjK-25" value="" style="endArrow=none;html=1;rounded=0;exitX=0.563;exitY=0;exitDx=0;exitDy=0;exitPerimeter=0;" parent="WIyWlLk6GJQsqaUBKTNV-1" source="apiDf4bLDLwHWCde7VjK-17" edge="1">
          <mxGeometry width="50" height="50" relative="1" as="geometry">
            <mxPoint x="670" y="260" as="sourcePoint" />
            <mxPoint x="670" y="186" as="targetPoint" />
          </mxGeometry>
        </mxCell>
        <mxCell id="apiDf4bLDLwHWCde7VjK-26" value="&lt;font style=&quot;font-size: 9px;&quot;&gt;zona de origem&lt;/font&gt;" style="text;html=1;align=center;verticalAlign=middle;resizable=0;points=[];autosize=1;strokeColor=none;fillColor=none;rotation=0;" parent="WIyWlLk6GJQsqaUBKTNV-1" vertex="1">
          <mxGeometry x="560" y="350" width="90" height="30" as="geometry" />
        </mxCell>
        <mxCell id="apiDf4bLDLwHWCde7VjK-27" value="&lt;font style=&quot;font-size: 9px;&quot;&gt;zona de destino&lt;/font&gt;" style="text;html=1;align=center;verticalAlign=middle;resizable=0;points=[];autosize=1;strokeColor=none;fillColor=none;rotation=0;" parent="WIyWlLk6GJQsqaUBKTNV-1" vertex="1">
          <mxGeometry x="690" y="350" width="90" height="30" as="geometry" />
        </mxCell>
        <mxCell id="apiDf4bLDLwHWCde7VjK-28" value="É constituida por" style="text;html=1;strokeColor=none;fillColor=none;align=center;verticalAlign=middle;whiteSpace=wrap;rounded=0;" parent="WIyWlLk6GJQsqaUBKTNV-1" vertex="1">
          <mxGeometry x="362" y="134" width="112" height="30" as="geometry" />
        </mxCell>
        <mxCell id="apiDf4bLDLwHWCde7VjK-30" value="" style="rhombus;whiteSpace=wrap;html=1;" parent="WIyWlLk6GJQsqaUBKTNV-1" vertex="1">
          <mxGeometry x="150" y="300" width="20" height="20" as="geometry" />
        </mxCell>
        <mxCell id="apiDf4bLDLwHWCde7VjK-36" value="" style="endArrow=none;html=1;rounded=0;entryX=0.494;entryY=-0.038;entryDx=0;entryDy=0;entryPerimeter=0;" parent="WIyWlLk6GJQsqaUBKTNV-1" target="apiDf4bLDLwHWCde7VjK-6" edge="1">
          <mxGeometry width="50" height="50" relative="1" as="geometry">
            <mxPoint x="160" y="320" as="sourcePoint" />
            <mxPoint x="160" y="330" as="targetPoint" />
          </mxGeometry>
        </mxCell>
        <mxCell id="apiDf4bLDLwHWCde7VjK-37" value="" style="endArrow=none;html=1;rounded=0;" parent="WIyWlLk6GJQsqaUBKTNV-1" edge="1">
          <mxGeometry width="50" height="50" relative="1" as="geometry">
            <mxPoint x="160" y="300" as="sourcePoint" />
            <mxPoint x="160" y="200" as="targetPoint" />
            <Array as="points">
              <mxPoint x="160" y="280" />
            </Array>
          </mxGeometry>
        </mxCell>
        <mxCell id="apiDf4bLDLwHWCde7VjK-38" value="&lt;font style=&quot;font-size: 15px;&quot;&gt;&lt;b&gt;*&lt;/b&gt;&lt;/font&gt;" style="text;html=1;align=center;verticalAlign=middle;resizable=0;points=[];autosize=1;strokeColor=none;fillColor=none;" parent="WIyWlLk6GJQsqaUBKTNV-1" vertex="1">
          <mxGeometry x="235" y="140" width="30" height="30" as="geometry" />
        </mxCell>
        <mxCell id="apiDf4bLDLwHWCde7VjK-39" value="&lt;font style=&quot;font-size: 15px;&quot;&gt;&lt;b&gt;*&lt;/b&gt;&lt;/font&gt;" style="text;html=1;align=center;verticalAlign=middle;resizable=0;points=[];autosize=1;strokeColor=none;fillColor=none;" parent="WIyWlLk6GJQsqaUBKTNV-1" vertex="1">
          <mxGeometry x="550" y="140" width="30" height="30" as="geometry" />
        </mxCell>
        <mxCell id="apiDf4bLDLwHWCde7VjK-41" value="&lt;font style=&quot;font-size: 15px;&quot;&gt;&lt;b&gt;*&lt;/b&gt;&lt;/font&gt;" style="text;html=1;align=center;verticalAlign=middle;resizable=0;points=[];autosize=1;strokeColor=none;fillColor=none;" parent="WIyWlLk6GJQsqaUBKTNV-1" vertex="1">
          <mxGeometry x="670" y="186" width="30" height="30" as="geometry" />
        </mxCell>
        <mxCell id="apiDf4bLDLwHWCde7VjK-43" value="Pertence" style="text;html=1;align=center;verticalAlign=middle;resizable=0;points=[];autosize=1;strokeColor=none;fillColor=none;" parent="WIyWlLk6GJQsqaUBKTNV-1" vertex="1">
          <mxGeometry x="670" y="218" width="70" height="30" as="geometry" />
        </mxCell>
        <mxCell id="apiDf4bLDLwHWCde7VjK-45" value="&lt;b style=&quot;border-color: var(--border-color); font-family: Helvetica; font-size: 15px; font-style: normal; font-variant-ligatures: normal; font-variant-caps: normal; letter-spacing: normal; orphans: 2; text-align: center; text-indent: 0px; text-transform: none; widows: 2; word-spacing: 0px; -webkit-text-stroke-width: 0px; text-decoration-thickness: initial; text-decoration-style: initial; text-decoration-color: initial;&quot;&gt;&lt;font color=&quot;#ffffff&quot;&gt;1&lt;/font&gt;&lt;/b&gt;" style="text;whiteSpace=wrap;html=1;" parent="WIyWlLk6GJQsqaUBKTNV-1" vertex="1">
          <mxGeometry x="680" y="248" width="20" height="18" as="geometry" />
        </mxCell>
        <mxCell id="apiDf4bLDLwHWCde7VjK-48" value="&lt;b&gt;&lt;font style=&quot;font-size: 17px;&quot;&gt;DIAGRAMA DE CLASSES UML&lt;/font&gt;&lt;/b&gt;" style="text;html=1;align=center;verticalAlign=middle;resizable=0;points=[];autosize=1;strokeColor=none;fillColor=none;" parent="WIyWlLk6GJQsqaUBKTNV-1" vertex="1">
          <mxGeometry x="283" y="38" width="270" height="30" as="geometry" />
        </mxCell>
        <mxCell id="apiDf4bLDLwHWCde7VjK-57" value="&lt;b style=&quot;border-color: var(--border-color); font-family: Helvetica; font-size: 15px; font-style: normal; font-variant-ligatures: normal; font-variant-caps: normal; letter-spacing: normal; orphans: 2; text-align: center; text-indent: 0px; text-transform: none; widows: 2; word-spacing: 0px; -webkit-text-stroke-width: 0px; text-decoration-thickness: initial; text-decoration-style: initial; text-decoration-color: initial;&quot;&gt;&lt;font style=&quot;&quot; color=&quot;#ffffff&quot;&gt;1&lt;/font&gt;&lt;/b&gt;" style="text;whiteSpace=wrap;html=1;" parent="WIyWlLk6GJQsqaUBKTNV-1" vertex="1">
          <mxGeometry x="170" y="198" width="20" height="18" as="geometry" />
        </mxCell>
        <mxCell id="apiDf4bLDLwHWCde7VjK-58" value="&lt;font style=&quot;font-size: 15px;&quot;&gt;&lt;b&gt;*&lt;/b&gt;&lt;/font&gt;" style="text;html=1;align=center;verticalAlign=middle;resizable=0;points=[];autosize=1;strokeColor=none;fillColor=none;" parent="WIyWlLk6GJQsqaUBKTNV-1" vertex="1">
          <mxGeometry x="165" y="310" width="30" height="30" as="geometry" />
        </mxCell>
        <mxCell id="apiDf4bLDLwHWCde7VjK-60" value="" style="endArrow=none;html=1;rounded=0;exitX=0;exitY=1;exitDx=0;exitDy=0;entryX=0.438;entryY=1.004;entryDx=0;entryDy=0;entryPerimeter=0;" parent="WIyWlLk6GJQsqaUBKTNV-1" source="iFUliVDRbNGwqYjjoVdZ-0" target="apiDf4bLDLwHWCde7VjK-18" edge="1">
          <mxGeometry width="50" height="50" relative="1" as="geometry">
            <mxPoint x="500" y="469" as="sourcePoint" />
            <mxPoint x="630" y="332" as="targetPoint" />
            <Array as="points">
              <mxPoint x="650" y="470" />
              <mxPoint x="650" y="400" />
            </Array>
          </mxGeometry>
        </mxCell>
        <mxCell id="apiDf4bLDLwHWCde7VjK-61" value="" style="endArrow=none;html=1;rounded=0;entryX=0.685;entryY=1.019;entryDx=0;entryDy=0;entryPerimeter=0;exitX=1;exitY=1;exitDx=0;exitDy=0;" parent="WIyWlLk6GJQsqaUBKTNV-1" source="apiDf4bLDLwHWCde7VjK-9" target="apiDf4bLDLwHWCde7VjK-18" edge="1">
          <mxGeometry width="50" height="50" relative="1" as="geometry">
            <mxPoint x="530" y="500" as="sourcePoint" />
            <mxPoint x="700" y="334" as="targetPoint" />
            <Array as="points">
              <mxPoint x="690" y="490" />
              <mxPoint x="690" y="360" />
            </Array>
          </mxGeometry>
        </mxCell>
        <mxCell id="apiDf4bLDLwHWCde7VjK-64" value="&lt;b style=&quot;border-color: var(--border-color); font-family: Helvetica; font-size: 15px; font-style: normal; font-variant-ligatures: normal; font-variant-caps: normal; letter-spacing: normal; orphans: 2; text-align: center; text-indent: 0px; text-transform: none; widows: 2; word-spacing: 0px; -webkit-text-stroke-width: 0px; text-decoration-thickness: initial; text-decoration-style: initial; text-decoration-color: initial;&quot;&gt;&lt;font color=&quot;#ffffff&quot;&gt;1&lt;/font&gt;&lt;/b&gt;" style="text;whiteSpace=wrap;html=1;" parent="WIyWlLk6GJQsqaUBKTNV-1" vertex="1">
          <mxGeometry x="630" y="325" width="20" height="18" as="geometry" />
        </mxCell>
        <mxCell id="apiDf4bLDLwHWCde7VjK-68" value="&lt;b style=&quot;border-color: var(--border-color); font-family: Helvetica; font-size: 15px; font-style: normal; font-variant-ligatures: normal; font-variant-caps: normal; letter-spacing: normal; orphans: 2; text-align: center; text-indent: 0px; text-transform: none; widows: 2; word-spacing: 0px; -webkit-text-stroke-width: 0px; text-decoration-thickness: initial; text-decoration-style: initial; text-decoration-color: initial;&quot;&gt;&lt;font color=&quot;#ffffff&quot;&gt;1&lt;/font&gt;&lt;/b&gt;" style="text;whiteSpace=wrap;html=1;" parent="WIyWlLk6GJQsqaUBKTNV-1" vertex="1">
          <mxGeometry x="695" y="325" width="20" height="18" as="geometry" />
        </mxCell>
        <mxCell id="apiDf4bLDLwHWCde7VjK-70" value="&lt;span style=&quot;font-size: 17px;&quot;&gt;&lt;b&gt;MODELO RELACIONAL&lt;/b&gt;&lt;/span&gt;" style="text;html=1;align=center;verticalAlign=middle;resizable=0;points=[];autosize=1;strokeColor=none;fillColor=none;" parent="WIyWlLk6GJQsqaUBKTNV-1" vertex="1">
          <mxGeometry x="308" y="610" width="210" height="30" as="geometry" />
        </mxCell>
        <mxCell id="apiDf4bLDLwHWCde7VjK-71" value="Linhas" style="swimlane;fontStyle=2;align=center;verticalAlign=top;childLayout=stackLayout;horizontal=1;startSize=26;horizontalStack=0;resizeParent=1;resizeLast=0;collapsible=1;marginBottom=0;rounded=0;shadow=0;strokeWidth=1;" parent="WIyWlLk6GJQsqaUBKTNV-1" vertex="1">
          <mxGeometry x="49" y="700" width="190" height="110" as="geometry">
            <mxRectangle x="230" y="140" width="160" height="26" as="alternateBounds" />
          </mxGeometry>
        </mxCell>
        <mxCell id="apiDf4bLDLwHWCde7VjK-75" value="PK     |   linhaID : ID" style="text;align=left;verticalAlign=top;spacingLeft=4;spacingRight=4;overflow=hidden;rotatable=0;points=[[0,0.5],[1,0.5]];portConstraint=eastwest;" parent="apiDf4bLDLwHWCde7VjK-71" vertex="1">
          <mxGeometry y="26" width="190" height="26" as="geometry" />
        </mxCell>
        <mxCell id="apiDf4bLDLwHWCde7VjK-80" value="" style="endArrow=none;html=1;rounded=0;" parent="apiDf4bLDLwHWCde7VjK-71" edge="1">
          <mxGeometry width="50" height="50" relative="1" as="geometry">
            <mxPoint y="52" as="sourcePoint" />
            <mxPoint x="190" y="52" as="targetPoint" />
          </mxGeometry>
        </mxCell>
        <mxCell id="apiDf4bLDLwHWCde7VjK-81" value="nome : varchar(30)" style="text;align=left;verticalAlign=top;spacingLeft=4;spacingRight=4;overflow=hidden;rotatable=0;points=[[0,0.5],[1,0.5]];portConstraint=eastwest;" parent="apiDf4bLDLwHWCde7VjK-71" vertex="1">
          <mxGeometry y="52" width="190" height="26" as="geometry" />
        </mxCell>
        <mxCell id="apiDf4bLDLwHWCde7VjK-82" value="cor : varchar(6)" style="text;align=left;verticalAlign=top;spacingLeft=4;spacingRight=4;overflow=hidden;rotatable=0;points=[[0,0.5],[1,0.5]];portConstraint=eastwest;" parent="apiDf4bLDLwHWCde7VjK-71" vertex="1">
          <mxGeometry y="78" width="190" height="26" as="geometry" />
        </mxCell>
        <mxCell id="apiDf4bLDLwHWCde7VjK-83" value="Paragens" style="swimlane;fontStyle=2;align=center;verticalAlign=top;childLayout=stackLayout;horizontal=1;startSize=26;horizontalStack=0;resizeParent=1;resizeLast=0;collapsible=1;marginBottom=0;rounded=0;shadow=0;strokeWidth=1;" parent="WIyWlLk6GJQsqaUBKTNV-1" vertex="1">
          <mxGeometry x="589" y="700" width="190" height="106" as="geometry">
            <mxRectangle x="230" y="140" width="160" height="26" as="alternateBounds" />
          </mxGeometry>
        </mxCell>
        <mxCell id="apiDf4bLDLwHWCde7VjK-84" value="PK     |   paragemID : ID" style="text;align=left;verticalAlign=top;spacingLeft=4;spacingRight=4;overflow=hidden;rotatable=0;points=[[0,0.5],[1,0.5]];portConstraint=eastwest;" parent="apiDf4bLDLwHWCde7VjK-83" vertex="1">
          <mxGeometry y="26" width="190" height="26" as="geometry" />
        </mxCell>
        <mxCell id="apiDf4bLDLwHWCde7VjK-129" value="FK1   |   zonaIdOrigem : ID" style="text;align=left;verticalAlign=top;spacingLeft=4;spacingRight=4;overflow=hidden;rotatable=0;points=[[0,0.5],[1,0.5]];portConstraint=eastwest;" parent="apiDf4bLDLwHWCde7VjK-83" vertex="1">
          <mxGeometry y="52" width="190" height="26" as="geometry" />
        </mxCell>
        <mxCell id="apiDf4bLDLwHWCde7VjK-85" value="" style="endArrow=none;html=1;rounded=0;" parent="apiDf4bLDLwHWCde7VjK-83" edge="1">
          <mxGeometry width="50" height="50" relative="1" as="geometry">
            <mxPoint y="78" as="sourcePoint" />
            <mxPoint x="190" y="78" as="targetPoint" />
          </mxGeometry>
        </mxCell>
        <mxCell id="apiDf4bLDLwHWCde7VjK-86" value="nome : varchar(30)" style="text;align=left;verticalAlign=top;spacingLeft=4;spacingRight=4;overflow=hidden;rotatable=0;points=[[0,0.5],[1,0.5]];portConstraint=eastwest;" parent="apiDf4bLDLwHWCde7VjK-83" vertex="1">
          <mxGeometry y="78" width="190" height="28" as="geometry" />
        </mxCell>
        <mxCell id="apiDf4bLDLwHWCde7VjK-88" value="Zonas" style="swimlane;fontStyle=2;align=center;verticalAlign=top;childLayout=stackLayout;horizontal=1;startSize=26;horizontalStack=0;resizeParent=1;resizeLast=0;collapsible=1;marginBottom=0;rounded=0;shadow=0;strokeWidth=1;" parent="WIyWlLk6GJQsqaUBKTNV-1" vertex="1">
          <mxGeometry x="589" y="840" width="190" height="110" as="geometry">
            <mxRectangle x="230" y="140" width="160" height="26" as="alternateBounds" />
          </mxGeometry>
        </mxCell>
        <mxCell id="apiDf4bLDLwHWCde7VjK-89" value="PK1    |   zonaIdOrigem : ID" style="text;align=left;verticalAlign=top;spacingLeft=4;spacingRight=4;overflow=hidden;rotatable=0;points=[[0,0.5],[1,0.5]];portConstraint=eastwest;" parent="apiDf4bLDLwHWCde7VjK-88" vertex="1">
          <mxGeometry y="26" width="190" height="26" as="geometry" />
        </mxCell>
        <mxCell id="iFUliVDRbNGwqYjjoVdZ-3" value="PK2    |   zonaIdDestino : ID" style="text;align=left;verticalAlign=top;spacingLeft=4;spacingRight=4;overflow=hidden;rotatable=0;points=[[0,0.5],[1,0.5]];portConstraint=eastwest;" parent="apiDf4bLDLwHWCde7VjK-88" vertex="1">
          <mxGeometry y="52" width="190" height="26" as="geometry" />
        </mxCell>
        <mxCell id="iFUliVDRbNGwqYjjoVdZ-4" value="" style="endArrow=none;html=1;rounded=0;" parent="apiDf4bLDLwHWCde7VjK-88" edge="1">
          <mxGeometry width="50" height="50" relative="1" as="geometry">
            <mxPoint y="78" as="sourcePoint" />
            <mxPoint x="190" y="78" as="targetPoint" />
          </mxGeometry>
        </mxCell>
        <mxCell id="apiDf4bLDLwHWCde7VjK-91" value="nome : varchar(30)" style="text;align=left;verticalAlign=top;spacingLeft=4;spacingRight=4;overflow=hidden;rotatable=0;points=[[0,0.5],[1,0.5]];portConstraint=eastwest;" parent="apiDf4bLDLwHWCde7VjK-88" vertex="1">
          <mxGeometry y="78" width="190" height="30" as="geometry" />
        </mxCell>
        <mxCell id="apiDf4bLDLwHWCde7VjK-92" value="Títulos" style="swimlane;fontStyle=2;align=center;verticalAlign=top;childLayout=stackLayout;horizontal=1;startSize=26;horizontalStack=0;resizeParent=1;resizeLast=0;collapsible=1;marginBottom=0;rounded=0;shadow=0;strokeWidth=1;" parent="WIyWlLk6GJQsqaUBKTNV-1" vertex="1">
          <mxGeometry x="589" y="980" width="191" height="130" as="geometry">
            <mxRectangle x="230" y="140" width="160" height="26" as="alternateBounds" />
          </mxGeometry>
        </mxCell>
        <mxCell id="apiDf4bLDLwHWCde7VjK-93" value="PK     |   títuloID : ID" style="text;align=left;verticalAlign=top;spacingLeft=4;spacingRight=4;overflow=hidden;rotatable=0;points=[[0,0.5],[1,0.5]];portConstraint=eastwest;" parent="apiDf4bLDLwHWCde7VjK-92" vertex="1">
          <mxGeometry y="26" width="191" height="26" as="geometry" />
        </mxCell>
        <mxCell id="apiDf4bLDLwHWCde7VjK-134" value="FK1   |   zonaIdOrigem : ID" style="text;align=left;verticalAlign=top;spacingLeft=4;spacingRight=4;overflow=hidden;rotatable=0;points=[[0,0.5],[1,0.5]];portConstraint=eastwest;" parent="apiDf4bLDLwHWCde7VjK-92" vertex="1">
          <mxGeometry y="52" width="191" height="26" as="geometry" />
        </mxCell>
        <mxCell id="iFUliVDRbNGwqYjjoVdZ-2" value="FK2   |   zonaIdDestino : ID" style="text;align=left;verticalAlign=top;spacingLeft=4;spacingRight=4;overflow=hidden;rotatable=0;points=[[0,0.5],[1,0.5]];portConstraint=eastwest;" parent="apiDf4bLDLwHWCde7VjK-92" vertex="1">
          <mxGeometry y="78" width="191" height="26" as="geometry" />
        </mxCell>
        <mxCell id="apiDf4bLDLwHWCde7VjK-94" value="" style="endArrow=none;html=1;rounded=0;" parent="apiDf4bLDLwHWCde7VjK-92" edge="1">
          <mxGeometry width="50" height="50" relative="1" as="geometry">
            <mxPoint y="104" as="sourcePoint" />
            <mxPoint x="190" y="104" as="targetPoint" />
          </mxGeometry>
        </mxCell>
        <mxCell id="apiDf4bLDLwHWCde7VjK-95" value="preço : number(3)" style="text;align=left;verticalAlign=top;spacingLeft=4;spacingRight=4;overflow=hidden;rotatable=0;points=[[0,0.5],[1,0.5]];portConstraint=eastwest;" parent="apiDf4bLDLwHWCde7VjK-92" vertex="1">
          <mxGeometry y="104" width="191" height="26" as="geometry" />
        </mxCell>
        <mxCell id="apiDf4bLDLwHWCde7VjK-96" value="Viagens" style="swimlane;fontStyle=2;align=center;verticalAlign=top;childLayout=stackLayout;horizontal=1;startSize=26;horizontalStack=0;resizeParent=1;resizeLast=0;collapsible=1;marginBottom=0;rounded=0;shadow=0;strokeWidth=1;" parent="WIyWlLk6GJQsqaUBKTNV-1" vertex="1">
          <mxGeometry x="49" y="880" width="190" height="110" as="geometry">
            <mxRectangle x="230" y="140" width="160" height="26" as="alternateBounds" />
          </mxGeometry>
        </mxCell>
        <mxCell id="apiDf4bLDLwHWCde7VjK-97" value="PK     |   viagemID : ID" style="text;align=left;verticalAlign=top;spacingLeft=4;spacingRight=4;overflow=hidden;rotatable=0;points=[[0,0.5],[1,0.5]];portConstraint=eastwest;" parent="apiDf4bLDLwHWCde7VjK-96" vertex="1">
          <mxGeometry y="26" width="190" height="26" as="geometry" />
        </mxCell>
        <mxCell id="apiDf4bLDLwHWCde7VjK-130" value="FK1   |   linhaID : ID" style="text;align=left;verticalAlign=top;spacingLeft=4;spacingRight=4;overflow=hidden;rotatable=0;points=[[0,0.5],[1,0.5]];portConstraint=eastwest;" parent="apiDf4bLDLwHWCde7VjK-96" vertex="1">
          <mxGeometry y="52" width="190" height="26" as="geometry" />
        </mxCell>
        <mxCell id="apiDf4bLDLwHWCde7VjK-98" value="" style="endArrow=none;html=1;rounded=0;" parent="apiDf4bLDLwHWCde7VjK-96" edge="1">
          <mxGeometry width="50" height="50" relative="1" as="geometry">
            <mxPoint y="78" as="sourcePoint" />
            <mxPoint x="190" y="78" as="targetPoint" />
          </mxGeometry>
        </mxCell>
        <mxCell id="apiDf4bLDLwHWCde7VjK-99" value="hora de partida : number(6)" style="text;align=left;verticalAlign=top;spacingLeft=4;spacingRight=4;overflow=hidden;rotatable=0;points=[[0,0.5],[1,0.5]];portConstraint=eastwest;" parent="apiDf4bLDLwHWCde7VjK-96" vertex="1">
          <mxGeometry y="78" width="190" height="26" as="geometry" />
        </mxCell>
        <mxCell id="apiDf4bLDLwHWCde7VjK-111" value="Horários" style="swimlane;fontStyle=2;align=center;verticalAlign=top;childLayout=stackLayout;horizontal=1;startSize=26;horizontalStack=0;resizeParent=1;resizeLast=0;collapsible=1;marginBottom=0;rounded=0;shadow=0;strokeWidth=1;" parent="WIyWlLk6GJQsqaUBKTNV-1" vertex="1">
          <mxGeometry x="318" y="700" width="192" height="130" as="geometry">
            <mxRectangle x="230" y="140" width="160" height="26" as="alternateBounds" />
          </mxGeometry>
        </mxCell>
        <mxCell id="apiDf4bLDLwHWCde7VjK-112" value="PK, FK1 |   linhaID : ID" style="text;align=left;verticalAlign=top;spacingLeft=4;spacingRight=4;overflow=hidden;rotatable=0;points=[[0,0.5],[1,0.5]];portConstraint=eastwest;" parent="apiDf4bLDLwHWCde7VjK-111" vertex="1">
          <mxGeometry y="26" width="192" height="26" as="geometry" />
        </mxCell>
        <mxCell id="apiDf4bLDLwHWCde7VjK-116" value="PK, FK2 |   paragemID : ID" style="text;align=left;verticalAlign=top;spacingLeft=4;spacingRight=4;overflow=hidden;rotatable=0;points=[[0,0.5],[1,0.5]];portConstraint=eastwest;" parent="apiDf4bLDLwHWCde7VjK-111" vertex="1">
          <mxGeometry y="52" width="192" height="26" as="geometry" />
        </mxCell>
        <mxCell id="apiDf4bLDLwHWCde7VjK-118" value="tempo de passagem: number(6)" style="text;align=left;verticalAlign=top;spacingLeft=4;spacingRight=4;overflow=hidden;rotatable=0;points=[[0,0.5],[1,0.5]];portConstraint=eastwest;fontSize=11;" parent="apiDf4bLDLwHWCde7VjK-111" vertex="1">
          <mxGeometry y="78" width="192" height="26" as="geometry" />
        </mxCell>
        <mxCell id="apiDf4bLDLwHWCde7VjK-113" value="" style="endArrow=none;html=1;rounded=0;entryX=0.996;entryY=-0.006;entryDx=0;entryDy=0;entryPerimeter=0;" parent="apiDf4bLDLwHWCde7VjK-111" target="apiDf4bLDLwHWCde7VjK-118" edge="1">
          <mxGeometry width="50" height="50" relative="1" as="geometry">
            <mxPoint y="78" as="sourcePoint" />
            <mxPoint x="180" y="78" as="targetPoint" />
          </mxGeometry>
        </mxCell>
        <mxCell id="apiDf4bLDLwHWCde7VjK-117" value="número da paragem : number(2)" style="text;align=left;verticalAlign=top;spacingLeft=4;spacingRight=4;overflow=hidden;rotatable=0;points=[[0,0.5],[1,0.5]];portConstraint=eastwest;fontSize=11;" parent="apiDf4bLDLwHWCde7VjK-111" vertex="1">
          <mxGeometry y="104" width="192" height="26" as="geometry" />
        </mxCell>
        <mxCell id="apiDf4bLDLwHWCde7VjK-123" value="" style="endArrow=classic;html=1;rounded=0;entryX=-0.006;entryY=0.673;entryDx=0;entryDy=0;entryPerimeter=0;exitX=1;exitY=0.664;exitDx=0;exitDy=0;exitPerimeter=0;" parent="WIyWlLk6GJQsqaUBKTNV-1" source="apiDf4bLDLwHWCde7VjK-116" target="apiDf4bLDLwHWCde7VjK-129" edge="1">
          <mxGeometry width="50" height="50" relative="1" as="geometry">
            <mxPoint x="509" y="778" as="sourcePoint" />
            <mxPoint x="589" y="780" as="targetPoint" />
          </mxGeometry>
        </mxCell>
        <mxCell id="apiDf4bLDLwHWCde7VjK-124" value="" style="endArrow=classic;html=1;rounded=0;exitX=-0.001;exitY=0.608;exitDx=0;exitDy=0;entryX=0.999;entryY=0.618;entryDx=0;entryDy=0;entryPerimeter=0;exitPerimeter=0;" parent="WIyWlLk6GJQsqaUBKTNV-1" source="apiDf4bLDLwHWCde7VjK-116" target="apiDf4bLDLwHWCde7VjK-81" edge="1">
          <mxGeometry width="50" height="50" relative="1" as="geometry">
            <mxPoint x="232" y="790" as="sourcePoint" />
            <mxPoint x="282" y="740" as="targetPoint" />
          </mxGeometry>
        </mxCell>
        <mxCell id="apiDf4bLDLwHWCde7VjK-125" value="" style="endArrow=classic;html=1;rounded=0;entryX=0.5;entryY=1;entryDx=0;entryDy=0;exitX=0.5;exitY=0;exitDx=0;exitDy=0;" parent="WIyWlLk6GJQsqaUBKTNV-1" source="apiDf4bLDLwHWCde7VjK-96" target="apiDf4bLDLwHWCde7VjK-71" edge="1">
          <mxGeometry width="50" height="50" relative="1" as="geometry">
            <mxPoint x="139" y="960" as="sourcePoint" />
            <mxPoint x="189" y="910" as="targetPoint" />
          </mxGeometry>
        </mxCell>
        <mxCell id="apiDf4bLDLwHWCde7VjK-127" value="" style="endArrow=classic;html=1;rounded=0;entryX=0.5;entryY=0;entryDx=0;entryDy=0;exitX=0.5;exitY=1;exitDx=0;exitDy=0;" parent="WIyWlLk6GJQsqaUBKTNV-1" source="apiDf4bLDLwHWCde7VjK-83" target="apiDf4bLDLwHWCde7VjK-88" edge="1">
          <mxGeometry width="50" height="50" relative="1" as="geometry">
            <mxPoint x="679" y="805" as="sourcePoint" />
            <mxPoint x="729" y="755" as="targetPoint" />
          </mxGeometry>
        </mxCell>
        <mxCell id="apiDf4bLDLwHWCde7VjK-132" value="" style="endArrow=classic;html=1;rounded=0;exitX=0.5;exitY=0;exitDx=0;exitDy=0;entryX=0.5;entryY=1;entryDx=0;entryDy=0;" parent="WIyWlLk6GJQsqaUBKTNV-1" source="apiDf4bLDLwHWCde7VjK-92" target="apiDf4bLDLwHWCde7VjK-88" edge="1">
          <mxGeometry width="50" height="50" relative="1" as="geometry">
            <mxPoint x="683" y="944" as="sourcePoint" />
            <mxPoint x="684" y="920" as="targetPoint" />
          </mxGeometry>
        </mxCell>
        <mxCell id="iFUliVDRbNGwqYjjoVdZ-0" value="&lt;div style=&quot;text-align: center;&quot;&gt;&lt;span style=&quot;background-color: initial; font-size: 15px;&quot;&gt;&lt;font color=&quot;#ffffff&quot;&gt;&lt;b&gt;*&lt;/b&gt;&lt;/font&gt;&lt;/span&gt;&lt;/div&gt;" style="text;whiteSpace=wrap;html=1;" parent="WIyWlLk6GJQsqaUBKTNV-1" vertex="1">
          <mxGeometry x="500" y="452" width="20" height="18" as="geometry" />
        </mxCell>
        <mxCell id="iFUliVDRbNGwqYjjoVdZ-1" value="&lt;div style=&quot;text-align: center;&quot;&gt;&lt;span style=&quot;background-color: initial; font-size: 15px;&quot;&gt;&lt;font color=&quot;#ffffff&quot;&gt;&lt;b&gt;*&lt;/b&gt;&lt;/font&gt;&lt;/span&gt;&lt;/div&gt;" style="text;whiteSpace=wrap;html=1;" parent="WIyWlLk6GJQsqaUBKTNV-1" vertex="1">
          <mxGeometry x="500" y="470" width="20" height="18" as="geometry" />
        </mxCell>
        <mxCell id="iFUliVDRbNGwqYjjoVdZ-5" value="" style="endArrow=none;html=1;rounded=0;strokeWidth=7;" parent="WIyWlLk6GJQsqaUBKTNV-1" edge="1">
          <mxGeometry width="50" height="50" relative="1" as="geometry">
            <mxPoint x="4.37" y="560" as="sourcePoint" />
            <mxPoint x="820" y="560" as="targetPoint" />
          </mxGeometry>
        </mxCell>
      </root>
    </mxGraphModel>
  </diagram>
</mxfile>
